<svg version="1.1" xmlns="http://www.w3.org/2000/svg" xmlns:xlink="http://www.w3.org/1999/xlink" x="0px" y="0px" width="468.6px" viewBox="0 0 468.6 120" style="enable-background:new 0 0 468.6 77.2;" xml:space="preserve" class="name blur">
	<defs>
        <linearGradient id="Gradient" x1="100%" y1="100%">
          <stop offset="0%" stop-color="#fff8de" stop-opacity="1">
            <animate attributeName="stop-color" values="#fff1d8;#b49a6d;#d2ba8f;#fff1d8" dur="14s" repeatCount="indefinite"></animate>
          </stop>
          <stop offset="0.99" stop-color="#fff6d0" stop-opacity="1">
            <animate attributeName="stop-color" values="#fff6d0" dur="14s" repeatCount="indefinite"></animate>
            <animate attributeName="offset" values=".99" dur="14s" repeatCount="indefinite"></animate>
          </stop>
        </linearGradient>
        <linearGradient id="Gradient2" x1="100%" y1="100%">
      <stop offset="0%" style="stop-color: #fff6d0; stop-opacity: 0.7"></stop>
      <stop offset="60%" style="stop-color: #fff6d0; stop-opacity: 0"></stop>
        </linearGradient>
</defs>
<path fill="url(#Gradient)" d="M67.5,4.4c0.2-1.5,1-2.4,1.8-2.4C70.2,2,70.8,2.5,72,5l24.3,51.6l24.3-52.3c0.7-1.5,1.5-2.3,2.4-2.3 c0.7,0,1.8,1,2.1,2.9l8.2,57.2c0.8,5.8,1.6,8.3,4.4,9.1c2.6,0.8,4,0.9,5.2,0.9c0.8,0,1.4,0.3,1.4,0.9c0,0.8-1,1.1-2.4,1.1 c-2.3,0-15.1-0.4-18.8-0.7c-2.2-0.1-2.7-0.5-2.7-1.1c0-0.4,0.4-0.8,1-1c0.5-0.2,0.7-1.3,0.4-3.9l-5-40.1h-0.3L97.2,68.8 c-2.1,4.4-2.6,5.2-3.6,5.2c-1.1,0-2.2-1.9-3.6-4.7c-2.2-4.2-9.4-18.4-10.4-21c-0.7-1.7-6.1-13.4-9.1-19.8h-0.3l-4.3,36.1 c-0.2,1.6-0.3,2.8-0.3,4.4c0,1.7,1.2,2.4,2.8,2.7c1.5,0.3,2.4,0.4,3.2,0.4c0.8,0,1.4,0.4,1.4,0.9c0,0.9-0.8,1.1-2.2,1.1 c-3.8,0-7.9-0.3-9.6-0.3c-1.8,0-6.1,0.3-9,0.3c-0.9,0-1.6-0.2-1.6-1.1c0-0.4,0.5-0.9,1.4-0.9c0.7,0,1.3,0,2.8-0.2 c2.5-0.3,3.3-4,3.7-7.1L67.5,4.4z M148.6,30.9c0-14,0.1-16.7-0.1-19.6c-0.2-3.3-1-4.1-3.9-5c-0.7-0.2-2.3-0.3-3.5-0.3 c-1,0-1.5-0.3-1.5-1s0.6-0.9,2-0.9c4.8,0,10.9,0.2,13.6,0.2c2.3,0,8.3-0.2,11.6-0.2c1.3,0,2,0.2,2,0.9s-0.5,1-1.4,1 c-1,0-1.5,0.1-2.7,0.3c-2.4,0.4-3.1,1.7-3.3,5c-0.2,2.9-0.2,5.6-0.2,19.6v13c0,13.5,2.5,18.7,6.9,22.4c4,3.4,8.3,3.7,11.4,3.7 c3.9,0,8.6-1.2,12.2-4.9c5-5,5.3-13.1,5.3-22.5V30.9c0-14-0.1-16.7-0.2-19.6c-0.2-3.2-0.9-4.1-3.8-5c-0.7-0.2-2.3-0.3-3.3-0.3 c-1,0-1.5-0.3-1.5-1s0.6-0.9,1.9-0.9c4.6,0,10.7,0.2,10.8,0.2c1,0,7.1-0.2,10.6-0.2c1.2,0,1.9,0.2,1.9,0.9s-0.5,1-1.5,1 c-1,0-1.5,0.1-2.7,0.3c-2.5,0.4-3.1,1.7-3.3,5c-0.1,2.9-0.2,5.6-0.2,19.6v9.9c0,10.3-1,21.2-8.7,27.9c-6.4,5.7-13.3,6.6-19.2,6.6 c-4.7,0-14.1-0.2-20.7-6.3c-4.6-4.2-8.2-11.1-8.2-24.5V30.9z M235.6,47.2c0,11.9,0,17.7,2,19.5c1.5,1.4,5,2,12.1,2 c4.8,0,8.3-0.1,10.6-2.6c1.1-1.2,2.1-3.8,2.3-5.6c0.1-0.9,0.3-1.4,1-1.4c0.6,0,0.8,1,0.8,2.1s-0.6,7.9-1.3,10.7 c-0.6,2.1-1,2.5-5.8,2.5c-6.5,0-11.7-0.1-16.3-0.3c-4.5-0.1-8.3-0.2-12.1-0.2c-1,0-3,0.1-5.2,0.1c-2.2,0.1-4.4,0.2-6.3,0.2 c-1.1,0-1.8-0.3-1.8-1c0-0.4,0.3-1,1.4-1c1.3,0,2.4-0.1,3.2-0.3c1.9-0.4,2.4-2.2,2.7-4.9c0.4-3.9,0.4-11.2,0.4-19.7V30.9 c0-14,0-16.7-0.1-19.6c-0.2-3.2-1-4.1-3.9-5c-0.7-0.2-1.9-0.3-3-0.3c-1,0-1.5-0.3-1.5-1s0.6-0.9,2-0.9c4.2,0,10,0.2,12.5,0.2 c2.2,0,9.6-0.2,13.1-0.2c1.3,0,2,0.2,2,0.9s-0.5,1-1.6,1c-1,0-2.5,0.1-3.5,0.3c-2.5,0.4-3.2,1.7-3.4,5c-0.2,2.9-0.2,5.6-0.2,19.6 V47.2z M274.9,30.9c0-14,0-16.7-0.1-19.6c-0.2-3.2-1-4.1-3.9-5c-0.7-0.2-2.3-0.3-3.6-0.3c-0.9,0-1.5-0.3-1.5-1s0.7-0.9,2.1-0.9 c4.7,0,10.5,0.2,13.1,0.2c2.8,0,9.3-0.2,14.7-0.2c11.3,0,26.6,0,36.5,10.6c4.5,4.8,8.6,12.5,8.6,23.5c0,11.6-4.7,20.5-9.9,25.8 c-4.1,4.4-13.7,10.9-30.4,10.9c-3.3,0-7.2-0.3-10.8-0.5c-3.6-0.3-6.9-0.5-9.2-0.5c-1,0-3,0.1-5.2,0.1c-2.2,0.1-4.4,0.2-6.3,0.2 c-1.1,0-1.8-0.3-1.8-1c0-0.4,0.3-1,1.4-1c1.3,0,2.4-0.1,3.2-0.3c1.9-0.4,2.4-2.2,2.7-4.9c0.4-3.9,0.4-11.2,0.4-19.7V30.9z  M287.1,41.1c0,9.8,0.1,16.9,0.2,18.7c0.1,2.3,0.3,5.6,1,6.5c1.1,1.7,4.7,3.7,11.9,3.7c8.2,0,14.3-1.5,19.8-6.3 c5.9-5.1,7.7-13.4,7.7-23c0-11.8-4.4-19.4-8.4-23.1c-8.3-7.8-18.2-8.8-25.3-8.8c-1.9,0-4.8,0.2-5.6,0.7c-0.8,0.3-1.1,0.8-1.1,1.9 c-0.1,3.2-0.1,10.8-0.1,18.1V41.1z M354.1,30.9c0-14,0-16.7-0.1-19.6c-0.2-3.2-1-4.1-3.9-5c-0.7-0.2-2.3-0.3-3.6-0.3 c-0.9,0-1.5-0.3-1.5-1s0.7-0.9,2.1-0.9c4.7,0,10.5,0.2,13.1,0.2c2.9,0,23,0.1,24.7,0c1.6-0.1,3.1-0.4,3.8-0.5c0.5-0.1,1-0.4,1.4-0.4 c0.5,0,0.6,0.4,0.6,0.9c0,0.7-0.5,1.7-0.7,6c-0.1,1-0.3,5-0.5,6.1c-0.1,0.4-0.3,1.5-1,1.5c-0.6,0-0.7-0.4-0.7-1.2 c0-0.7-0.1-2.3-0.6-3.4c-0.7-1.6-1.4-2.9-6-3.4c-1.5-0.2-12.4-0.4-14.2-0.4c-0.4,0-0.6,0.3-0.6,0.9v22.9c0,0.5,0.1,1,0.6,1 c2.1,0,13.8,0,15.9-0.2c2.2-0.2,3.5-0.4,4.3-1.4c0.7-0.7,1-1.2,1.4-1.2c0.4,0,0.7,0.4,0.7,1s-0.2,2.1-0.7,6.8 c-0.2,1.9-0.4,5.6-0.4,6.2c0,0.8-0.1,2.1-0.9,2.1c-0.6,0-0.8-0.3-0.8-0.8c-0.1-1-0.1-2.2-0.3-3.4c-0.5-1.9-1.6-3.3-5-3.6 c-1.6-0.2-12-0.4-14.2-0.4c-0.4,0-0.5,0.4-0.5,1v7.4c0,3.2-0.1,11,0,13.7c0.2,6.3,3,7.7,12.3,7.7c2.4,0,6.2-0.1,8.6-1.2 c2.3-1.1,3.3-3,3.9-6.9c0.2-1,0.4-1.4,1-1.4c0.7,0,0.8,1.2,0.8,2.2c0,2.1-0.7,8.4-1.2,10.2c-0.6,2.4-1.4,2.4-4.8,2.4 c-6.8,0-12.3-0.1-16.7-0.3c-4.4-0.1-7.8-0.2-10.5-0.2c-1,0-3,0.1-5.2,0.1c-2.2,0.1-4.4,0.2-6.3,0.2c-1.1,0-1.8-0.3-1.8-1 c0-0.4,0.3-1,1.4-1c1.3,0,2.4-0.1,3.2-0.3c1.9-0.4,2.4-2.2,2.7-4.9c0.4-3.9,0.4-11.2,0.4-19.7V30.9z M406.1,30.9 c0-14,0-16.7-0.1-19.6c-0.2-3.2-1-4.1-3.9-5c-0.7-0.2-2.3-0.3-3.6-0.3c-0.9,0-1.5-0.3-1.5-1s0.7-0.9,2.1-0.9 c4.7,0,10.5,0.2,12.4,0.2c3.1,0,11.3-0.2,14.1-0.2c5.8,0,12.4,0.5,17.2,3.9c2.6,1.9,6.4,6.5,6.4,12.7c0,6.9-3.7,13-12.6,20.5 c8,10.5,14.4,18.8,19.9,24.6c5,5.3,8.2,5.8,9.7,6.1c0.9,0.2,1.4,0.2,2.2,0.2c0.7,0,1.1,0.5,1.1,1c0,0.8-0.6,1-1.8,1h-8.7 c-5,0-7.5-0.5-9.9-1.9c-3.9-2.1-7.3-6.4-12.4-13.6c-3.6-5-7.4-11.2-8.6-12.6c-0.5-0.5-1-0.7-1.6-0.7l-8.1-0.2 c-0.4,0-0.7,0.2-0.7,0.8v1.3c0,8.6,0.1,15.8,0.5,19.7c0.3,2.7,0.7,4.5,3.5,4.9c1.3,0.2,3.3,0.3,4.4,0.3c0.7,0,1.1,0.5,1.1,1 c0,0.7-0.7,1-1.9,1c-5.3,0-12.8-0.3-14.1-0.3c-1.8,0-7.5,0.3-11.1,0.3c-1.1,0-1.8-0.3-1.8-1c0-0.4,0.3-1,1.4-1 c1.3,0,2.4-0.1,3.2-0.3c1.9-0.4,2.4-2.2,2.7-4.9c0.4-3.9,0.4-11.2,0.4-19.7V30.9z M417.6,38.1c0,1,0.2,1.3,0.8,1.6 c2,0.7,4.6,0.9,6.9,0.9c3.6,0,4.8-0.3,6.4-1.5c2.8-2.1,5.9-6.1,5.9-13.7c0-13.1-8.4-16.4-13.8-16.4c-2.3,0-4.4,0.1-5.4,0.3 c-0.6,0.2-0.8,0.5-0.8,1.3V38.1z M13.9,67.9c-7.3,0-8.6,0-10.2,0.1c-1.6,0.1-2.4,0.4-2.7,1.7c-0.1,0.3-0.1,1-0.1,1.5 c0,0.4-0.1,0.7-0.4,0.7C0.1,71.9,0,71.6,0,71c0-2.1,0.1-4.6,0.1-5.6c0-1-0.1-3.5-0.1-5c0-0.6,0.1-0.8,0.4-0.8c0.3,0,0.4,0.2,0.4,0.7 c0,0.4,0,0.7,0.1,1.2c0.2,1.1,1.1,1.4,2.7,1.5C5.3,63,6.6,63,13.9,63h8.9c2.1,0,4.4-0.1,6.8-0.1c2.7,0,5.8,0.2,8.5,1 c2.9,0.8,6.2,2.9,9.1,6.8c0.4,0.5,0.8,1.2,1.2,2c0.2,0.3,0.3,0.6,0.3,0.8c0,0.2-0.1,0.3-0.4,0.3c-0.2,0-0.4-0.2-0.9-0.9 c-0.3-0.5-0.9-1.1-1.8-1.9c-3.7-3-8.5-3-17.9-3H13.9z M26,49.9c0,0.2,0,0.2,0.3,0.3l5.5,1.9c1,0.4,2,0.5,2.5,0.5 c0.7,0,1.2-0.3,1.2-1.4v-0.5c0-0.4,0.2-0.5,0.4-0.5c0.3,0,0.4,0.2,0.4,0.6c0,1.2-0.1,2.8-0.1,3.9c0,0.4,0.1,2.2,0.1,4.1 c0,0.4-0.1,0.6-0.4,0.6c-0.2,0-0.4-0.1-0.4-0.4c0-0.3,0-0.7,0-1c-0.3-1.6-1.5-2.2-3.6-2.9L6.1,45.9c-1.2-0.4-1.6-0.7-1.6-1 c0-0.5,0.4-0.7,1.3-1c2.3-0.8,19-6.7,25.2-8.9c3.7-1.4,4.2-2.3,4.4-3c0.1-0.5,0.1-0.9,0.1-1.3c0-0.3,0.1-0.5,0.4-0.5 c0.3,0,0.4,0.2,0.4,1.5c0,1.2,0,3.8-0.1,6.7c0,0.6,0,1-0.3,1c-0.2,0-0.4-0.1-0.4-0.4c0-0.2-0.4-0.5-0.9-0.3l-8.2,2.7 c-0.2,0.1-0.3,0.2-0.3,0.4V49.9z M23.8,42.5c0-0.2-0.1-0.2-0.2-0.2l-10.4,3.3c-0.1,0-0.4,0.1-0.4,0.2c0,0.1,0.2,0.2,0.4,0.2 l10.3,3.4c0.2,0.1,0.3,0,0.3-0.1V42.5z M30.7,23.4c3.2-0.1,4.1-0.5,4.4-1.2c0.2-0.6,0.3-1.3,0.3-1.8c0-0.4,0.2-0.6,0.4-0.6 c0.3,0,0.4,0.3,0.4,0.8c0,2.3-0.1,3.9-0.1,4.5c0,0.3,0.1,2,0.1,3.8c0,0.5,0,0.8-0.4,0.8c-0.2,0-0.4-0.2-0.4-0.6c0-0.5,0-1.1-0.2-1.6 c-0.3-0.9-1.4-1-4.9-1.1L6.1,26.2c-0.8,0-1.4-0.2-1.4-0.6c0-0.4,0.6-0.9,1.3-1.5c0.5-0.4,7-5.7,13-10.8c2.8-2.4,8.6-7,9.2-7.5V5.6 L10.1,6C7.6,6,6.9,6.3,6.5,7.2C6.2,7.7,6.2,8.5,6.2,9c0,0.4-0.2,0.6-0.4,0.6c-0.3,0-0.4-0.4-0.4-0.9c0-1.8,0.1-3.7,0.1-4.5 c0-0.4-0.1-1.7-0.1-3.4c0-0.5,0-0.8,0.4-0.8C6,0,6.2,0.2,6.2,0.6c0,0.4,0,0.6,0.1,1.1c0.3,1,1.1,1.2,3.4,1.3l25.7,0.4 c0.9,0,1.3,0.3,1.3,0.6c0,0.6-0.4,1.1-0.9,1.4c-2.4,2.2-7.5,6.6-11.8,10.2c-4.4,3.8-9.4,7.5-10.1,8.2v0.1L30.7,23.4z"/> 		<path transform="scale(1,-1) translate(0,-149)" fill-opacity="0.3" fill="url(#Gradient2)" d="M67.5,4.4c0.2-1.5,1-2.4,1.8-2.4C70.2,2,70.8,2.5,72,5l24.3,51.6l24.3-52.3c0.7-1.5,1.5-2.3,2.4-2.3 c0.7,0,1.8,1,2.1,2.9l8.2,57.2c0.8,5.8,1.6,8.3,4.4,9.1c2.6,0.8,4,0.9,5.2,0.9c0.8,0,1.4,0.3,1.4,0.9c0,0.8-1,1.1-2.4,1.1 c-2.3,0-15.1-0.4-18.8-0.7c-2.2-0.1-2.7-0.5-2.7-1.1c0-0.4,0.4-0.8,1-1c0.5-0.2,0.7-1.3,0.4-3.9l-5-40.1h-0.3L97.2,68.8 c-2.1,4.4-2.6,5.2-3.6,5.2c-1.1,0-2.2-1.9-3.6-4.7c-2.2-4.2-9.4-18.4-10.4-21c-0.7-1.7-6.1-13.4-9.1-19.8h-0.3l-4.3,36.1 c-0.2,1.6-0.3,2.8-0.3,4.4c0,1.7,1.2,2.4,2.8,2.7c1.5,0.3,2.4,0.4,3.2,0.4c0.8,0,1.4,0.4,1.4,0.9c0,0.9-0.8,1.1-2.2,1.1 c-3.8,0-7.9-0.3-9.6-0.3c-1.8,0-6.1,0.3-9,0.3c-0.9,0-1.6-0.2-1.6-1.1c0-0.4,0.5-0.9,1.4-0.9c0.7,0,1.3,0,2.8-0.2 c2.5-0.3,3.3-4,3.7-7.1L67.5,4.4z M148.6,30.9c0-14,0.1-16.7-0.1-19.6c-0.2-3.3-1-4.1-3.9-5c-0.7-0.2-2.3-0.3-3.5-0.3 c-1,0-1.5-0.3-1.5-1s0.6-0.9,2-0.9c4.8,0,10.9,0.2,13.6,0.2c2.3,0,8.3-0.2,11.6-0.2c1.3,0,2,0.2,2,0.9s-0.5,1-1.4,1 c-1,0-1.5,0.1-2.7,0.3c-2.4,0.4-3.1,1.7-3.3,5c-0.2,2.9-0.2,5.6-0.2,19.6v13c0,13.5,2.5,18.7,6.9,22.4c4,3.4,8.3,3.7,11.4,3.7 c3.9,0,8.6-1.2,12.2-4.9c5-5,5.3-13.1,5.3-22.5V30.9c0-14-0.1-16.7-0.2-19.6c-0.2-3.2-0.9-4.1-3.8-5c-0.7-0.2-2.3-0.3-3.3-0.3 c-1,0-1.5-0.3-1.5-1s0.6-0.9,1.9-0.9c4.6,0,10.7,0.2,10.8,0.2c1,0,7.1-0.2,10.6-0.2c1.2,0,1.9,0.2,1.9,0.9s-0.5,1-1.5,1 c-1,0-1.5,0.1-2.7,0.3c-2.5,0.4-3.1,1.7-3.3,5c-0.1,2.9-0.2,5.6-0.2,19.6v9.9c0,10.3-1,21.2-8.7,27.9c-6.4,5.7-13.3,6.6-19.2,6.6 c-4.7,0-14.1-0.2-20.7-6.3c-4.6-4.2-8.2-11.1-8.2-24.5V30.9z M235.6,47.2c0,11.9,0,17.7,2,19.5c1.5,1.4,5,2,12.1,2 c4.8,0,8.3-0.1,10.6-2.6c1.1-1.2,2.1-3.8,2.3-5.6c0.1-0.9,0.3-1.4,1-1.4c0.6,0,0.8,1,0.8,2.1s-0.6,7.9-1.3,10.7 c-0.6,2.1-1,2.5-5.8,2.5c-6.5,0-11.7-0.1-16.3-0.3c-4.5-0.1-8.3-0.2-12.1-0.2c-1,0-3,0.1-5.2,0.1c-2.2,0.1-4.4,0.2-6.3,0.2 c-1.1,0-1.8-0.3-1.8-1c0-0.4,0.3-1,1.4-1c1.3,0,2.4-0.1,3.2-0.3c1.9-0.4,2.4-2.2,2.7-4.9c0.4-3.9,0.4-11.2,0.4-19.7V30.9 c0-14,0-16.7-0.1-19.6c-0.2-3.2-1-4.1-3.9-5c-0.7-0.2-1.9-0.3-3-0.3c-1,0-1.5-0.3-1.5-1s0.6-0.9,2-0.9c4.2,0,10,0.2,12.5,0.2 c2.2,0,9.6-0.2,13.1-0.2c1.3,0,2,0.2,2,0.9s-0.5,1-1.6,1c-1,0-2.5,0.1-3.5,0.3c-2.5,0.4-3.2,1.7-3.4,5c-0.2,2.9-0.2,5.6-0.2,19.6 V47.2z M274.9,30.9c0-14,0-16.7-0.1-19.6c-0.2-3.2-1-4.1-3.9-5c-0.7-0.2-2.3-0.3-3.6-0.3c-0.9,0-1.5-0.3-1.5-1s0.7-0.9,2.1-0.9 c4.7,0,10.5,0.2,13.1,0.2c2.8,0,9.3-0.2,14.7-0.2c11.3,0,26.6,0,36.5,10.6c4.5,4.8,8.6,12.5,8.6,23.5c0,11.6-4.7,20.5-9.9,25.8 c-4.1,4.4-13.7,10.9-30.4,10.9c-3.3,0-7.2-0.3-10.8-0.5c-3.6-0.3-6.9-0.5-9.2-0.5c-1,0-3,0.1-5.2,0.1c-2.2,0.1-4.4,0.2-6.3,0.2 c-1.1,0-1.8-0.3-1.8-1c0-0.4,0.3-1,1.4-1c1.3,0,2.4-0.1,3.2-0.3c1.9-0.4,2.4-2.2,2.7-4.9c0.4-3.9,0.4-11.2,0.4-19.7V30.9z  M287.1,41.1c0,9.8,0.1,16.9,0.2,18.7c0.1,2.3,0.3,5.6,1,6.5c1.1,1.7,4.7,3.7,11.9,3.7c8.2,0,14.3-1.5,19.8-6.3 c5.9-5.1,7.7-13.4,7.7-23c0-11.8-4.4-19.4-8.4-23.1c-8.3-7.8-18.2-8.8-25.3-8.8c-1.9,0-4.8,0.2-5.6,0.7c-0.8,0.3-1.1,0.8-1.1,1.9 c-0.1,3.2-0.1,10.8-0.1,18.1V41.1z M354.1,30.9c0-14,0-16.7-0.1-19.6c-0.2-3.2-1-4.1-3.9-5c-0.7-0.2-2.3-0.3-3.6-0.3 c-0.9,0-1.5-0.3-1.5-1s0.7-0.9,2.1-0.9c4.7,0,10.5,0.2,13.1,0.2c2.9,0,23,0.1,24.7,0c1.6-0.1,3.1-0.4,3.8-0.5c0.5-0.1,1-0.4,1.4-0.4 c0.5,0,0.6,0.4,0.6,0.9c0,0.7-0.5,1.7-0.7,6c-0.1,1-0.3,5-0.5,6.1c-0.1,0.4-0.3,1.5-1,1.5c-0.6,0-0.7-0.4-0.7-1.2 c0-0.7-0.1-2.3-0.6-3.4c-0.7-1.6-1.4-2.9-6-3.4c-1.5-0.2-12.4-0.4-14.2-0.4c-0.4,0-0.6,0.3-0.6,0.9v22.9c0,0.5,0.1,1,0.6,1 c2.1,0,13.8,0,15.9-0.2c2.2-0.2,3.5-0.4,4.3-1.4c0.7-0.7,1-1.2,1.4-1.2c0.4,0,0.7,0.4,0.7,1s-0.2,2.1-0.7,6.8 c-0.2,1.9-0.4,5.6-0.4,6.2c0,0.8-0.1,2.1-0.9,2.1c-0.6,0-0.8-0.3-0.8-0.8c-0.1-1-0.1-2.2-0.3-3.4c-0.5-1.9-1.6-3.3-5-3.6 c-1.6-0.2-12-0.4-14.2-0.4c-0.4,0-0.5,0.4-0.5,1v7.4c0,3.2-0.1,11,0,13.7c0.2,6.3,3,7.7,12.3,7.7c2.4,0,6.2-0.1,8.6-1.2 c2.3-1.1,3.3-3,3.9-6.9c0.2-1,0.4-1.4,1-1.4c0.7,0,0.8,1.2,0.8,2.2c0,2.1-0.7,8.4-1.2,10.2c-0.6,2.4-1.4,2.4-4.8,2.4 c-6.8,0-12.3-0.1-16.7-0.3c-4.4-0.1-7.8-0.2-10.5-0.2c-1,0-3,0.1-5.2,0.1c-2.2,0.1-4.4,0.2-6.3,0.2c-1.1,0-1.8-0.3-1.8-1 c0-0.4,0.3-1,1.4-1c1.3,0,2.4-0.1,3.2-0.3c1.9-0.4,2.4-2.2,2.7-4.9c0.4-3.9,0.4-11.2,0.4-19.7V30.9z M406.1,30.9 c0-14,0-16.7-0.1-19.6c-0.2-3.2-1-4.1-3.9-5c-0.7-0.2-2.3-0.3-3.6-0.3c-0.9,0-1.5-0.3-1.5-1s0.7-0.9,2.1-0.9 c4.7,0,10.5,0.2,12.4,0.2c3.1,0,11.3-0.2,14.1-0.2c5.8,0,12.4,0.5,17.2,3.9c2.6,1.9,6.4,6.5,6.4,12.7c0,6.9-3.7,13-12.6,20.5 c8,10.5,14.4,18.8,19.9,24.6c5,5.3,8.2,5.8,9.7,6.1c0.9,0.2,1.4,0.2,2.2,0.2c0.7,0,1.1,0.5,1.1,1c0,0.8-0.6,1-1.8,1h-8.7 c-5,0-7.5-0.5-9.9-1.9c-3.9-2.1-7.3-6.4-12.4-13.6c-3.6-5-7.4-11.2-8.6-12.6c-0.5-0.5-1-0.7-1.6-0.7l-8.1-0.2 c-0.4,0-0.7,0.2-0.7,0.8v1.3c0,8.6,0.1,15.8,0.5,19.7c0.3,2.7,0.7,4.5,3.5,4.9c1.3,0.2,3.3,0.3,4.4,0.3c0.7,0,1.1,0.5,1.1,1 c0,0.7-0.7,1-1.9,1c-5.3,0-12.8-0.3-14.1-0.3c-1.8,0-7.5,0.3-11.1,0.3c-1.1,0-1.8-0.3-1.8-1c0-0.4,0.3-1,1.4-1 c1.3,0,2.4-0.1,3.2-0.3c1.9-0.4,2.4-2.2,2.7-4.9c0.4-3.9,0.4-11.2,0.4-19.7V30.9z M417.6,38.1c0,1,0.2,1.3,0.8,1.6 c2,0.7,4.6,0.9,6.9,0.9c3.6,0,4.8-0.3,6.4-1.5c2.8-2.1,5.9-6.1,5.9-13.7c0-13.1-8.4-16.4-13.8-16.4c-2.3,0-4.4,0.1-5.4,0.3 c-0.6,0.2-0.8,0.5-0.8,1.3V38.1z M13.9,67.9c-7.3,0-8.6,0-10.2,0.1c-1.6,0.1-2.4,0.4-2.7,1.7c-0.1,0.3-0.1,1-0.1,1.5 c0,0.4-0.1,0.7-0.4,0.7C0.1,71.9,0,71.6,0,71c0-2.1,0.1-4.6,0.1-5.6c0-1-0.1-3.5-0.1-5c0-0.6,0.1-0.8,0.4-0.8c0.3,0,0.4,0.2,0.4,0.7 c0,0.4,0,0.7,0.1,1.2c0.2,1.1,1.1,1.4,2.7,1.5C5.3,63,6.6,63,13.9,63h8.9c2.1,0,4.4-0.1,6.8-0.1c2.7,0,5.8,0.2,8.5,1 c2.9,0.8,6.2,2.9,9.1,6.8c0.4,0.5,0.8,1.2,1.2,2c0.2,0.3,0.3,0.6,0.3,0.8c0,0.2-0.1,0.3-0.4,0.3c-0.2,0-0.4-0.2-0.9-0.9 c-0.3-0.5-0.9-1.1-1.8-1.9c-3.7-3-8.5-3-17.9-3H13.9z M26,49.9c0,0.2,0,0.2,0.3,0.3l5.5,1.9c1,0.4,2,0.5,2.5,0.5 c0.7,0,1.2-0.3,1.2-1.4v-0.5c0-0.4,0.2-0.5,0.4-0.5c0.3,0,0.4,0.2,0.4,0.6c0,1.2-0.1,2.8-0.1,3.9c0,0.4,0.1,2.2,0.1,4.1 c0,0.4-0.1,0.6-0.4,0.6c-0.2,0-0.4-0.1-0.4-0.4c0-0.3,0-0.7,0-1c-0.3-1.6-1.5-2.2-3.6-2.9L6.1,45.9c-1.2-0.4-1.6-0.7-1.6-1 c0-0.5,0.4-0.7,1.3-1c2.3-0.8,19-6.7,25.2-8.9c3.7-1.4,4.2-2.3,4.4-3c0.1-0.5,0.1-0.9,0.1-1.3c0-0.3,0.1-0.5,0.4-0.5 c0.3,0,0.4,0.2,0.4,1.5c0,1.2,0,3.8-0.1,6.7c0,0.6,0,1-0.3,1c-0.2,0-0.4-0.1-0.4-0.4c0-0.2-0.4-0.5-0.9-0.3l-8.2,2.7 c-0.2,0.1-0.3,0.2-0.3,0.4V49.9z M23.8,42.5c0-0.2-0.1-0.2-0.2-0.2l-10.4,3.3c-0.1,0-0.4,0.1-0.4,0.2c0,0.1,0.2,0.2,0.4,0.2 l10.3,3.4c0.2,0.1,0.3,0,0.3-0.1V42.5z M30.7,23.4c3.2-0.1,4.1-0.5,4.4-1.2c0.2-0.6,0.3-1.3,0.3-1.8c0-0.4,0.2-0.6,0.4-0.6 c0.3,0,0.4,0.3,0.4,0.8c0,2.3-0.1,3.9-0.1,4.5c0,0.3,0.1,2,0.1,3.8c0,0.5,0,0.8-0.4,0.8c-0.2,0-0.4-0.2-0.4-0.6c0-0.5,0-1.1-0.2-1.6 c-0.3-0.9-1.4-1-4.9-1.1L6.1,26.2c-0.8,0-1.4-0.2-1.4-0.6c0-0.4,0.6-0.9,1.3-1.5c0.5-0.4,7-5.7,13-10.8c2.8-2.4,8.6-7,9.2-7.5V5.6 L10.1,6C7.6,6,6.9,6.3,6.5,7.2C6.2,7.7,6.2,8.5,6.2,9c0,0.4-0.2,0.6-0.4,0.6c-0.3,0-0.4-0.4-0.4-0.9c0-1.8,0.1-3.7,0.1-4.5 c0-0.4-0.1-1.7-0.1-3.4c0-0.5,0-0.8,0.4-0.8C6,0,6.2,0.2,6.2,0.6c0,0.4,0,0.6,0.1,1.1c0.3,1,1.1,1.2,3.4,1.3l25.7,0.4 c0.9,0,1.3,0.3,1.3,0.6c0,0.6-0.4,1.1-0.9,1.4c-2.4,2.2-7.5,6.6-11.8,10.2c-4.4,3.8-9.4,7.5-10.1,8.2v0.1L30.7,23.4z"/>
</svg>